<?xml version="1.0" encoding="UTF-8"?>
<svg width="32px" height="32px" viewBox="0 0 32 32" version="1.1" xmlns="http://www.w3.org/2000/svg" xmlns:xlink="http://www.w3.org/1999/xlink">
    <!-- Generator: Sketch 52.3 (67297) - http://www.bohemiancoding.com/sketch -->
    <title>icon / add</title>
    <desc>Created with Sketch.</desc>
    <g id="icon-/-add" stroke="none" stroke-width="1" fill="none" fill-rule="evenodd">
        <path d="M15.422533,16.4668543 L8.24539139,16.4332597 C7.56167484,16.4300594 7.00412695,16.1066375 7.00002278,15.7108473 C6.99591862,15.3150572 7.54681284,14.9968236 8.23052939,15.0000239 L15.4292411,15.0337195 L15.4628357,7.85657792 C15.4660361,7.17286137 15.789458,6.61531347 16.1852482,6.61120931 C16.5810383,6.60710515 16.8992719,7.15799936 16.8960716,7.84171592 L16.862376,15.0404277 L24.039616,15.0740227 C24.7232341,15.0772226 25.2807826,15.4007015 25.2848862,15.7964347 C25.2889903,16.1922248 24.7380961,16.5104584 24.0543796,16.5072581 L16.8556678,16.4735625 L16.8220727,23.6508026 C16.8188729,24.3344206 16.4953939,24.8919691 16.0996608,24.8960727 C15.7038706,24.9001769 15.3856371,24.3492826 15.3888374,23.6655661 L15.422533,16.4668543 Z" id="Combined-Shape" fill="#9F9FAD"></path>
    </g>
</svg>