<?xml version="1.0" encoding="UTF-8"?>
<svg width="32px" height="32px" viewBox="0 0 32 32" version="1.1" xmlns="http://www.w3.org/2000/svg" xmlns:xlink="http://www.w3.org/1999/xlink">
    <!-- Generator: Sketch 52.3 (67297) - http://www.bohemiancoding.com/sketch -->
    <title>icon / products</title>
    <desc>Created with Sketch.</desc>
    <g id="icon-/-products" stroke="none" stroke-width="1" fill="none" fill-rule="evenodd">
        <path d="M20.4858115,14.5087085 C20.3310275,14.4560286 20.2481604,14.2876307 20.3005443,14.1331427 C20.4976497,13.5524807 21.1318794,13.2414329 21.7116535,13.4370586 C21.9836354,13.5293962 22.2798855,13.3834909 22.3722232,13.111509 C22.424903,12.956725 22.592413,12.8738578 22.747789,12.9262417 C22.902573,12.9789216 22.9854401,13.1473195 22.9327603,13.3018075 C22.7359508,13.8827655 22.102313,14.1944052 21.521651,13.9978916 C21.2499651,13.9058499 20.953715,14.0517553 20.8610814,14.3234412 C20.8193518,14.4468541 20.7042257,14.524394 20.5808128,14.524394 C20.5494417,14.524394 20.5171827,14.5193628 20.4858115,14.5087085 Z M21.6060918,11.209173 C21.4513041,11.1564919 21.368139,10.9883859 21.4211161,10.8335982 C21.5167115,10.552139 21.7161894,10.3245449 21.9825545,10.1931381 C22.2489197,10.0614353 22.5505042,10.0419019 22.8322593,10.1374974 C23.1048396,10.2298373 23.4005048,10.0839284 23.4928447,9.81164403 C23.5452299,9.6568563 23.7133359,9.57309927 23.8681236,9.62637229 C24.0226154,9.6790534 24.1057805,9.84745534 24.0530994,10.0019471 C23.8559892,10.583215 23.2226321,10.8948622 22.6419562,10.6983439 C22.5102534,10.6536538 22.3690799,10.6625326 22.2441843,10.7240925 C22.1192886,10.7856525 22.0260608,10.8921985 21.9813707,11.0239013 C21.9396402,11.1473171 21.8245112,11.2248589 21.7010954,11.2248589 C21.6697235,11.2248589 21.6374637,11.2198276 21.6060918,11.209173 Z M22.4794768,8.06612715 C22.3016594,8.00560803 22.2068008,7.81249083 22.2669799,7.63433342 C22.465537,7.04920193 23.1043877,6.73504649 23.6898592,6.93258362 C23.8020576,6.97100306 23.9217358,6.96318318 24.0274743,6.91116393 C24.1332128,6.85914469 24.2124316,6.768706 24.2505111,6.65684763 C24.3110302,6.47903021 24.5034674,6.38315161 24.6819648,6.44401072 C24.8597822,6.50452984 24.9549808,6.69798703 24.8944617,6.87546445 C24.7979031,7.15936033 24.596966,7.388517 24.3283699,7.52111507 C24.0594338,7.65337315 23.7551383,7.67309286 23.4712424,7.57687426 C23.2410657,7.49867539 22.9891294,7.62277359 22.9109305,7.85329024 C22.8629912,7.99506818 22.7307332,8.08414689 22.5889552,8.08414689 C22.5525757,8.08414689 22.5158563,8.07836697 22.4794768,8.06612715 Z M25.4770707,14.9483514 C25.657475,15.0724089 25.758331,15.2764883 25.7450729,15.4947728 C25.7450729,15.4976138 25.7445994,15.5004548 25.7445994,15.5032958 L24.9183383,27.3541057 C24.845419,28.7817145 23.6616638,29.9062819 22.2241115,29.9062819 L8.93243473,29.9062819 C7.49488243,29.9062819 6.31112725,28.7817145 6.23773442,27.3455827 L5.43183389,15.892988 C5.42331086,15.7234743 5.46829355,15.5643776 5.55020941,15.4275355 C5.38069567,14.7523215 5.4105263,14.1628114 5.66479691,13.6822068 C6.08716076,12.8857763 6.99249673,12.5334908 7.74347102,12.3171003 C7.44327071,11.9761788 7.0308504,11.6826075 6.58717896,11.6826075 C6.57202689,11.6826075 6.55734832,11.6840281 6.54124925,11.6835546 C6.28650514,11.6835546 6.07627022,11.4808957 6.06822068,11.224731 C6.06017115,10.9633579 6.26567105,10.7450734 6.52704419,10.7365504 C7.27470397,10.7090873 7.94044789,11.1309776 8.41347646,11.6470949 C8.31262052,11.4160259 8.25911478,11.1660168 8.25911478,10.9065376 C8.25911478,10.4742303 8.40684743,10.0622834 8.6734291,9.73319951 C8.56783813,9.45998881 8.51291189,9.17020554 8.51291189,8.87758126 C8.51291189,7.77384792 9.26104517,6.84578385 10.2880712,6.58062269 C10.2951737,5.62036048 10.9552356,4.79409936 11.855363,4.54882529 C12.0357673,3.78033142 12.7275539,3.2059734 13.550974,3.2059734 C13.8454923,3.2059734 14.1324345,3.28173373 14.3881256,3.42425786 C14.688326,3.24858859 15.0396645,3.17519577 15.3943175,3.21733745 C16.0236018,3.29215078 16.5676557,3.75618281 16.74806,4.37268252 C16.7627385,4.42145323 16.7745761,4.46975044 16.7840461,4.51899466 C17.660025,4.69750494 18.35702,5.38597696 18.5397918,6.26479681 C19.3153882,6.63318142 19.8608626,7.33917301 20.0403199,8.16448713 C20.0857761,8.06836621 20.1317058,7.97129828 20.1785825,7.87186285 C20.9911121,6.14642129 22.0025125,4.00003638 23.4168632,3.27036968 C24.3193582,2.80586415 25.0144592,3.02556911 25.4387171,3.29215078 C26.3227454,3.84662171 26.7612084,5.04458196 26.7380068,5.94186839 C26.6641404,8.79471839 26.1480232,11.7900925 25.2071746,14.8474954 C25.301875,14.8598065 25.3946814,14.8920046 25.4770707,14.9483514 Z M20.4266976,9.51870307 C19.9252589,10.4552902 19.4697499,11.432125 19.0568561,12.4392639 C18.9962478,12.5879435 18.9389541,12.7394642 18.8802398,12.8895643 C18.7486062,13.2252773 18.6212342,13.5633578 18.4995442,13.9056998 C18.4417769,14.068111 18.3840097,14.2309957 18.3286099,14.3948274 C18.1827713,14.8261878 18.0435617,15.2608627 17.9138221,15.7016932 C17.901511,15.7424143 17.8877795,15.782662 17.8759419,15.8238567 C18.0861768,15.8001816 18.2940443,15.7452554 18.4820246,15.6325619 L18.8191581,15.429903 C19.2121648,15.1936254 19.6534687,15.0785644 20.0938256,15.0814054 C20.0995077,15.0814054 20.1047162,15.0804584 20.1099247,15.0804584 C20.5450731,15.0804584 20.9802215,15.1969399 21.3684932,15.429903 L21.7061002,15.6325619 C21.9390632,15.772245 22.1999629,15.8413763 22.461336,15.8442173 C22.7227092,15.8413763 22.9840823,15.772245 23.2170453,15.6325619 C23.2336179,15.6221448 23.250664,15.6136218 23.2681836,15.6055722 L24.0750311,15.2471312 C24.172099,14.9729735 24.2402833,14.7731556 24.2710609,14.6741937 C25.2076481,11.6627205 25.7190303,8.71659055 25.7914761,5.91724628 C25.8071017,5.30832262 25.4841733,4.4384993 24.9353844,4.09378979 C24.617191,3.89539242 24.2625379,3.89965394 23.8505911,4.11178287 C22.7222357,4.69419042 21.7468214,6.76386799 21.0351478,8.27528662 C20.8187573,8.73505713 20.6142044,9.16878503 20.4266976,9.51870307 Z M14.3904932,10.64185 C13.9818609,11.1631758 13.5590235,11.7020211 13.7541064,12.5917315 L14.0415221,13.9075938 C14.9989433,14.0463299 15.5799304,13.8990708 16.3602618,13.3445998 C16.9796025,12.9037694 17.4810412,12.6575483 17.9999995,12.5259147 C18.0279361,12.4553629 18.0582402,12.3867051 18.0866503,12.3161533 C18.2694221,11.8601708 18.4583495,11.4079763 18.6591144,10.9647784 C18.6018206,10.8563464 18.5317423,10.7659075 18.458823,10.6787831 C18.4176283,10.6295389 18.3731191,10.5845562 18.3281364,10.5405205 C18.2864682,10.5002729 18.2443265,10.4609722 18.2002908,10.424986 C18.1500996,10.3842649 18.0999084,10.3440172 18.0473497,10.3075575 C18.0018935,10.2758329 17.9554903,10.2460023 17.9086136,10.2171186 C17.8536873,10.182553 17.7992346,10.1475138 17.7428878,10.1157892 C17.7121102,10.0987431 17.6808591,10.0821705 17.6500814,10.065598 C17.5856852,10.0305588 17.5217624,9.99551966 17.4578396,9.96190101 C17.3801853,9.92070633 17.3048984,9.88093215 17.2329261,9.84115798 C17.0127476,9.71520643 16.8545979,9.53480214 16.7660531,9.31793819 C16.743325,9.26206494 16.7291199,9.20193018 16.7158618,9.14132191 L14.7394642,9.57362931 C14.7934434,9.81416836 14.7659803,10.0603894 14.6494988,10.2796209 C14.6220357,10.3312326 14.589364,10.3828444 14.5519574,10.4325621 C14.5514839,10.4330356 14.5510104,10.4335091 14.5510104,10.4344561 C14.4998721,10.5016934 14.4458929,10.5708247 14.3904932,10.64185 Z M16.7385899,7.76627189 L15.5098521,8.03522107 L14.1201235,8.3392094 C14.0164265,8.3619375 13.9477687,8.46847546 13.9704968,8.57217242 C13.9932249,8.67539587 14.0992894,8.74452717 14.2034598,8.72179907 L16.8190853,8.14933507 C16.8867961,8.1346565 16.9242028,8.0896738 16.9407753,8.06410469 C16.9578214,8.03806208 16.9833905,7.98455634 16.9682384,7.91637204 C16.9488249,7.82640665 16.865015,7.76248387 16.7755231,7.76248387 C16.763212,7.76248387 16.750901,7.76390438 16.7385899,7.76627189 Z M15.2082312,15.0899285 C15.257949,15.0870875 15.3076667,15.0814054 15.3578579,15.0823524 C15.3635399,15.0823524 15.3696954,15.0814054 15.3753775,15.0814054 C15.8105259,15.0814054 16.2456743,15.197887 16.633946,15.43085 L16.9488249,15.6193038 C17.0724089,15.1907844 17.2049895,14.7660531 17.3441991,14.3446362 C17.3735562,14.2551443 17.4062279,14.1675464 17.436532,14.078528 C17.4786737,13.9544705 17.5217624,13.83136 17.5653246,13.7077759 C17.3626657,13.8152609 17.1495897,13.9450005 16.9090507,14.1164082 C16.1448183,14.6599886 15.4800214,14.9057362 14.6542338,14.9057362 C14.5268617,14.9057362 14.3909667,14.8943721 14.2545981,14.8830081 L14.345037,15.2973224 C14.5869965,15.1884169 14.8417406,15.1230736 15.0997993,15.097031 C15.1357854,15.093243 15.1722451,15.092296 15.2082312,15.0899285 Z M9.54467292,10.1934435 C9.33017648,10.3695863 9.20706594,10.6295389 9.20659243,10.9065376 C9.20659243,11.0244397 9.22932053,11.1390272 9.27240922,11.2455651 C9.48169714,11.108723 9.70519012,10.995556 9.94099415,10.9155342 C9.95472571,10.9107992 9.96798377,10.9074847 9.98171533,10.9032231 C10.0712072,10.874813 10.1616461,10.8511379 10.254926,10.8340918 C10.2904387,10.8274628 10.3259513,10.8246218 10.361464,10.8198868 C10.4329628,10.8108902 10.5039881,10.8023672 10.5773809,10.8014202 C10.5892185,10.8014202 10.601056,10.7985792 10.6124201,10.7985792 C10.6503003,10.7985792 10.6877069,10.8066287 10.7255871,10.8089962 C10.7795663,10.8127842 10.8316516,10.8094697 10.8865778,10.8175193 C10.9026769,10.8198868 10.9183024,10.8260423 10.9344015,10.8288833 C10.943398,10.8303038 10.9523946,10.8293568 10.9613911,10.8312508 C11.0399925,10.8459294 11.1181203,10.8658165 11.1957747,10.8904386 C11.2194498,10.8980146 11.2431249,10.9093787 11.2668,10.9179017 C11.3382988,10.9434708 11.4093241,10.9728279 11.4798759,11.0073936 C11.5134945,11.0234927 11.5461662,11.0410122 11.5793113,11.0590053 C11.6474956,11.0959385 11.7147329,11.1376067 11.7819702,11.1825894 C11.8070658,11.1996354 11.8326349,11.2147875 11.8577306,11.2327806 C11.9472224,11.2971769 12.0362408,11.3696227 12.1247857,11.4486975 C12.1479873,11.4695316 12.1707154,11.4927332 12.1934435,11.5140408 C12.2635218,11.5803311 12.3331266,11.6508829 12.4027314,11.7261697 C12.4292476,11.7545799 12.4557637,11.7834635 12.4818063,11.8132941 C12.5646691,11.9079945 12.6470585,12.0079035 12.7294479,12.1163354 C12.7356034,12.1248585 12.7422324,12.1324345 12.7488615,12.1409576 C12.7507555,12.1433251 12.7526495,12.1456926 12.7545435,12.1480601 C12.7545435,12.0898193 12.761646,12.0367871 12.765434,11.9809139 C12.768275,11.9378252 12.769222,11.894263 12.7739571,11.8525948 C12.7857946,11.7484243 12.8042612,11.6485154 12.8269893,11.551921 C12.8312508,11.5334544 12.8331448,11.5140408 12.8378798,11.4960477 C12.867237,11.3824072 12.9041701,11.2744488 12.9458383,11.1712253 C12.9581494,11.1395007 12.9728279,11.110617 12.9865595,11.0803129 C13.0182841,11.0092876 13.0504823,10.9396828 13.0859949,10.8733925 C13.104935,10.8378798 13.1243486,10.8042612 13.1442357,10.770169 C13.1783278,10.7114548 13.2128935,10.654161 13.2488796,10.5987613 C13.2697137,10.5665632 13.2900743,10.5348385 13.3113819,10.5040609 C13.3502091,10.4472406 13.3895098,10.3927879 13.4288104,10.3392822 C13.447277,10.3146601 13.4647966,10.2895644 13.4832632,10.2654158 C13.5381894,10.1934435 13.5921687,10.1238387 13.6442539,10.0575484 C13.6958656,9.99173164 13.7465303,9.92780886 13.793407,9.86483308 C13.793407,9.86435958 13.793407,9.86435958 13.793407,9.86435958 C13.8208702,9.81890338 13.8279727,9.8009103 13.8156616,9.76587115 C13.794354,9.70478938 13.7327988,9.64465462 13.6589324,9.61292998 C13.3610996,9.48508442 13.1418682,9.21944975 13.0732104,8.90409737 L13.0452738,8.77577831 C13.0452738,8.77483131 13.0448003,8.7743578 13.0448003,8.7738843 C13.0448003,8.7734108 13.0448003,8.7729373 13.0448003,8.7724638 L13.0163901,8.64367123 C12.9590964,8.38087758 13.0073936,8.11050789 13.1532322,7.8837004 C13.2990709,7.6559459 13.5239844,7.49921672 13.786778,7.44192297 L15.1428879,7.14598417 L16.5326165,6.84199584 C16.534037,6.84152233 16.5354575,6.84199584 16.5368781,6.84152233 L16.6637766,6.81358571 C16.9265703,6.75581846 17.1964664,6.80458917 17.4232739,6.94995431 C17.6505549,7.09579295 17.8077576,7.32070643 17.8650514,7.58397359 L17.9223451,7.84487323 C17.9891089,8.15312308 17.9062461,8.47983951 17.6997992,8.71943156 C17.6481874,8.77956633 17.6226183,8.86148219 17.6339824,8.92966648 C17.6425054,8.9793842 17.6671275,8.99927129 17.6874881,9.01063534 C17.7599339,9.05088302 17.8319062,9.08876318 17.9062461,9.12806385 C18.1931883,9.27911102 18.5345833,9.46046231 18.8513562,9.72941149 C19.0469126,9.44673075 19.154871,9.12427584 19.1619736,8.78950987 C19.1785461,8.00586394 18.691786,7.30555437 17.9517023,7.04560173 L17.6576575,6.94237828 L17.6363499,6.63128741 C17.5894732,5.95228544 17.0203237,5.42054261 16.3399012,5.42054261 L15.8067379,5.42054261 L15.8621376,4.89164079 C15.8720811,4.80783092 15.8649786,4.72544156 15.839883,4.64021119 C15.7660167,4.38594057 15.5368417,4.18801671 15.2830446,4.15818608 C15.0765977,4.13451097 14.8763063,4.20174827 14.7304676,4.3456929 L14.4122742,4.66009827 L14.0803493,4.36037146 C13.9757053,4.26567105 13.7986156,4.15297755 13.5514475,4.15297755 C13.1219811,4.15297755 12.7711161,4.49531955 12.7573845,4.92099792 L12.7573845,5.39213248 L12.3198686,5.42527763 C11.7118919,5.47168083 11.2355488,5.98543058 11.2355488,6.59530126 C11.2355488,6.68289914 11.2469129,6.77523204 11.269641,6.86898545 L11.4036421,7.42866491 L10.8288105,7.45281351 C10.0617372,7.48501165 9.46086305,8.11050789 9.46086305,8.87758126 C9.46086305,9.12664335 9.52762684,9.37286443 9.65357839,9.59067538 L9.85481677,9.9377524 L9.54467292,10.1934435 Z M6.50242208,14.1249313 C6.37457652,14.3664173 6.34806041,14.6694586 6.42240023,15.0439988 C6.51520664,15.0610449 6.60564554,15.095137 6.6894554,15.1448547 C6.6894554,15.1453282 6.68992891,15.1453282 6.68992891,15.1453282 L7.3267892,15.5279179 C7.61325795,15.7002727 7.93381886,15.78645 8.25532677,15.789291 C8.57636117,15.78645 8.89739558,15.6997992 9.18386433,15.5279179 L9.34816955,15.4294295 C9.74117628,15.1931519 10.1824802,15.0780909 10.6228371,15.0809319 C10.6285192,15.0809319 10.6337277,15.0799849 10.6389362,15.0799849 C11.0740846,15.0799849 11.509233,15.1964664 11.8975047,15.4294295 L12.2351117,15.6320884 C12.3932614,15.7267888 12.5670367,15.784556 12.747441,15.8153337 C12.7725366,15.8191217 12.7971587,15.8229097 12.8222543,15.8252772 C12.9737749,15.0340552 12.8582404,14.1254048 12.5097429,13.5103256 C12.4335091,13.375851 12.3577487,13.2494259 12.2824619,13.1305769 C12.2597338,13.0945907 12.2365322,13.0633396 12.2138041,13.0283004 C12.1617189,12.9487521 12.1096337,12.8687302 12.0580219,12.7967579 C12.0291383,12.7565103 12.0007282,12.7224181 11.9718446,12.6845379 C11.9263884,12.6248767 11.8809322,12.5633214 11.8359495,12.5093422 C11.8028043,12.4700415 11.7701327,12.4364229 11.737461,12.3999632 C11.6972133,12.3549805 11.6569657,12.3081038 11.6171915,12.2678561 C11.5812053,12.2313965 11.5452192,12.2015658 11.509233,12.1688942 C11.4732469,12.1362225 11.4372607,12.1011834 11.4012746,12.0722998 C11.3624474,12.0410486 11.3240937,12.0164265 11.28574,11.9894369 C11.2535419,11.9671823 11.2213438,11.9420867 11.1891456,11.9226731 C11.1479509,11.8975775 11.1072298,11.8795844 11.0660351,11.8596973 C11.0371515,11.8464393 11.0087413,11.8298667 10.9803312,11.8189761 C10.9362955,11.8014566 10.8927333,11.790566 10.8486976,11.7796755 C10.8250225,11.7735199 10.8013474,11.7654704 10.7781458,11.7612089 C10.6896009,11.7455833 10.598215,11.7427423 10.5039881,11.7531594 C10.4973591,11.7536329 10.4907301,11.7545799 10.484101,11.7555269 C10.1862682,11.7938805 9.85718428,11.9624473 9.47554161,12.2725911 C9.35337808,12.3720266 9.22695302,12.4814055 9.09200493,12.6106716 C8.79464563,12.8947729 8.42815502,13.1054813 8.03325429,13.2181748 C7.18900009,13.4596608 6.70271346,13.7475501 6.50242208,14.1249313 Z M23.9751222,27.296812 L24.7635031,15.9772714 L24.6910573,16.0094695 C24.6725907,16.0208336 24.6583856,16.0378796 24.6384986,16.0468762 L23.7094875,16.45977 C23.3278448,16.682316 22.9021664,16.7931154 22.4769616,16.7931154 C22.4698591,16.7931154 22.462283,16.7916949 22.4551805,16.7916949 C22.0167176,16.7935889 21.5777811,16.6785279 21.1866684,16.4441444 L20.8490615,16.2414855 C20.6156249,16.1013289 20.3547253,16.0321976 20.0933521,16.0293566 C19.831979,16.0321976 19.5710794,16.1013289 19.3381163,16.2414855 L19.0005094,16.4441444 C18.808741,16.5592054 18.6027676,16.6354393 18.3925327,16.69368 C18.3555995,16.7045706 18.3181929,16.7126201 18.2807862,16.7216166 C18.2036054,16.7391362 18.1273715,16.7590233 18.0487702,16.7689668 C17.9114546,16.7883804 17.773192,16.7926419 17.6349294,16.7883804 C17.6268798,16.7883804 17.6183568,16.7874334 17.6103073,16.7869599 C17.209251,16.7703873 16.8105623,16.6591144 16.4521212,16.4446179 L16.1145142,16.241959 C15.8810777,16.1018024 15.620178,16.0326711 15.3588049,16.0298301 C15.0974317,16.0326711 14.8365321,16.1018024 14.6035691,16.241959 L14.2659621,16.4446179 C14.240393,16.45977 14.2110359,16.4602435 14.1835727,16.470187 C13.8909485,16.6368598 13.5737021,16.7386627 13.2503002,16.7751224 C13.2446181,16.7755959 13.2398831,16.7784369 13.2346746,16.7789104 C13.1915859,16.7826984 13.1489707,16.7826984 13.1063555,16.7845924 C12.6281184,16.810635 12.1441993,16.7007825 11.7171004,16.4446179 L11.3794935,16.241959 C11.1460569,16.1018024 10.8851573,16.0326711 10.6237841,16.0298301 C10.362411,16.0326711 10.1015114,16.1018024 9.86854833,16.241959 L9.70424311,16.3404475 C9.25773066,16.6084496 8.75676546,16.7400832 8.25627377,16.7372422 C7.75625558,16.7400832 7.25481688,16.6084496 6.80830442,16.3404475 L6.39635762,16.0932794 L7.18426507,27.2878154 C7.23256228,28.2286641 8.00058265,28.9588043 8.93385524,28.9588043 L22.2260055,28.9588043 C23.1588046,28.9588043 23.9272984,28.2286641 23.9751222,27.296812 Z M9.27237284,23.3624832 C9.01099969,23.3624832 8.79887077,23.1508278 8.79887077,22.8889812 C8.79887077,22.6271345 9.01099969,22.4154791 9.27237284,22.4154791 L12.5868874,22.4154791 C12.8482605,22.4154791 13.0603894,22.6271345 13.0603894,22.8889812 C13.0603894,23.1508278 12.8482605,23.3624832 12.5868874,23.3624832 L9.27237284,23.3624832 Z M9.27237284,25.2564915 C9.01099969,25.2564915 8.79887077,25.0448361 8.79887077,24.7829895 C8.79887077,24.5211428 9.01099969,24.3094874 9.27237284,24.3094874 L13.5338915,24.3094874 C13.7952647,24.3094874 14.0073936,24.5211428 14.0073936,24.7829895 C14.0073936,25.0448361 13.7952647,25.2564915 13.5338915,25.2564915 L9.27237284,25.2564915 Z M14.4808957,26.2034957 C14.7422688,26.2034957 14.9543977,26.4151511 14.9543977,26.6769978 C14.9543977,26.9388444 14.7422688,27.1504998 14.4808957,27.1504998 L9.27237284,27.1504998 C9.01099969,27.1504998 8.79887077,26.9388444 8.79887077,26.6769978 C8.79887077,26.4151511 9.01099969,26.2034957 9.27237284,26.2034957 L14.4808957,26.2034957 Z M17.3219081,26.2034957 C17.5832813,26.2034957 17.7954102,26.4151511 17.7954102,26.6769978 C17.7954102,26.9388444 17.5832813,27.1504998 17.3219081,27.1504998 L16.374904,27.1504998 C16.1135308,27.1504998 15.9014019,26.9388444 15.9014019,26.6769978 C15.9014019,26.4151511 16.1135308,26.2034957 16.374904,26.2034957 L17.3219081,26.2034957 Z" id="Combined-Shape" fill="#9F9FAD"></path>
    </g>
</svg>