<?xml version="1.0" encoding="UTF-8"?>
<svg width="32px" height="32px" viewBox="0 0 32 32" version="1.1" xmlns="http://www.w3.org/2000/svg" xmlns:xlink="http://www.w3.org/1999/xlink">
    <!-- Generator: Sketch 52.3 (67297) - http://www.bohemiancoding.com/sketch -->
    <title>icon / refresh</title>
    <desc>Created with Sketch.</desc>
    <g id="icon-/-refresh" stroke="none" stroke-width="1" fill="none" fill-rule="evenodd">
        <path d="M21.6206915,7.11351864 C23.3763525,8.45133559 24.6806508,10.3495322 25.2933153,12.4581695 C25.3936542,12.8033356 25.1951458,13.1644475 24.8499797,13.2647864 C24.5047051,13.3650169 24.1435932,13.1666169 24.0433627,12.8214508 C22.9279186,8.98264407 19.3537898,6.30169492 15.3517288,6.30169492 C10.3614644,6.30169492 6.30169492,10.3614644 6.30169492,15.3517288 C6.30169492,20.3419932 10.3615729,24.4017627 15.3517288,24.4017627 C17.7690847,24.4017627 20.0417356,23.4604203 21.751078,21.751078 C22.0051254,21.496922 22.4173288,21.496922 22.6714847,21.751078 C22.9256407,22.0052339 22.9256407,22.4173288 22.6714847,22.6714847 C20.716339,24.626739 18.1167458,25.7034576 15.3517288,25.7034576 C9.64379661,25.7034576 5,21.059661 5,15.3517288 C5,9.64379661 9.64379661,5 15.3517288,5 C17.6385898,5 19.8063458,5.73079322 21.6206915,7.11351864 Z M22.9831322,13.3818305 L24.9712542,15.3699525 L26.9593763,13.3818305 C27.2134237,13.1276746 27.6255186,13.1276746 27.8797831,13.3818305 C28.133939,13.6359864 28.133939,14.0480814 27.8797831,14.3022373 L25.4315119,16.7506169 C25.309478,16.8726508 25.1439458,16.9412068 24.9712542,16.9412068 C24.7985627,16.9412068 24.6330305,16.8726508 24.5109966,16.7506169 L22.0627254,14.3022373 C21.8085695,14.0480814 21.8085695,13.6359864 22.0627254,13.3818305 C22.3167729,13.1276746 22.7288678,13.1276746 22.9831322,13.3818305 Z" id="Combined-Shape" fill="#9F9FAD"></path>
    </g>
</svg>