<?xml version="1.0" encoding="UTF-8"?>
<svg width="32px" height="32px" viewBox="0 0 32 32" version="1.1" xmlns="http://www.w3.org/2000/svg" xmlns:xlink="http://www.w3.org/1999/xlink">
    <!-- Generator: Sketch 52.3 (67297) - http://www.bohemiancoding.com/sketch -->
    <title>icon / shopping-cart</title>
    <desc>Created with Sketch.</desc>
    <g id="icon-/-shopping-cart" stroke="none" stroke-width="1" fill="none" fill-rule="evenodd">
        <path d="M13.9833693,23.1733909 C15.3048426,23.1733909 16.37999,24.2485383 16.3800432,25.5700648 C16.3800432,26.8915913 15.3048958,27.9667387 13.9833693,27.9667387 C12.6618429,27.9667387 11.5866955,26.8915913 11.5866955,25.5700648 C11.5866955,24.2485383 12.6618429,23.1733909 13.9833693,23.1733909 Z M13.9833693,26.6284463 C14.5669828,26.6284463 15.0418573,26.1536782 15.0418573,25.5699583 C15.0418573,24.9863449 14.5669828,24.5114704 13.9833693,24.5114704 C13.3997559,24.5114704 12.9248814,24.9862917 12.9248814,25.5699583 C12.9248814,26.1535718 13.3997027,26.6284463 13.9833693,26.6284463 Z M19.975054,23.1733909 C21.2965272,23.1733909 22.3716746,24.2485383 22.3717279,25.5700648 C22.3717279,26.8915913 21.2965805,27.9667387 19.975054,27.9667387 C18.6535275,27.9667387 17.5783801,26.8915913 17.5783801,25.5700648 C17.5783801,24.2485383 18.6535275,23.1733909 19.975054,23.1733909 Z M19.975054,26.6284463 C20.5586674,26.6284463 21.0335419,26.1536782 21.0335419,25.5699583 C21.0335419,24.9863449 20.5587206,24.5114704 19.975054,24.5114704 C19.3914406,24.5114704 18.9165661,24.9862917 18.9165661,25.5699583 C18.9165661,26.1535718 19.3913873,26.6284463 19.975054,26.6284463 Z M21.7113061,11.1900216 C22.076059,11.1900216 22.3717279,11.4582199 22.3717279,11.7891901 C22.3717279,12.1201126 22.076059,12.3883585 21.7113061,12.3883585 L12.2471172,12.3883585 C11.8824169,12.3883585 11.5866955,12.1201126 11.5866955,11.7891901 C11.5866955,11.4582676 11.8823644,11.1900216 12.2471172,11.1900216 L21.7113061,11.1900216 Z M20.6055202,14.7850324 C20.9191366,14.7850324 21.1733909,15.053326 21.1733909,15.3842009 C21.1733909,15.7151234 20.9191366,15.9833693 20.605475,15.9833693 L13.3529483,15.9833693 C13.0392867,15.9833693 12.7850324,15.7151234 12.7850324,15.3842009 C12.7850324,15.0532784 13.0392867,14.7850324 13.3529483,14.7850324 L20.6055202,14.7850324 Z M28.0720661,8.78193852 C28.3189658,9.09234498 28.4153571,9.49540378 28.3365243,9.88754059 L26.5259436,18.8929159 C26.4026224,19.5064475 25.8693294,19.9517697 25.2580273,19.9517697 L9.24986369,19.9517697 L9.63084616,21.8468162 L25.1381561,21.8468162 C25.4956586,21.8468162 25.7854504,22.143768 25.7854504,22.5101035 C25.7854504,22.8764391 25.4956586,23.1733909 25.1381561,23.1733909 L9.63079467,23.1733909 C9.01944113,23.1733909 8.48619954,22.7280687 8.36282692,22.1145371 L5.23083073,6.53559401 L2.38965614,5.27186035 C2.06181246,5.12607536 1.91130404,4.73541593 2.05372836,4.39931374 C2.1959982,4.06331708 2.57718664,3.90908997 2.90518479,4.05508601 L5.7463079,5.31876691 C6.13254246,5.49061697 6.41378672,5.84539736 6.49879848,6.26792582 L6.90598991,8.29345593 L27.0685565,8.29345593 C27.4594253,8.29345593 27.8252179,8.47147929 28.0720661,8.78193852 Z M25.2580273,18.6253005 L27.068505,9.61997792 L7.17271368,9.61997792 L8.98319141,18.6253005 L25.2580273,18.6253005 Z" id="Combined-Shape" fill="#9F9FAD" fill-rule="nonzero"></path>
    </g>
</svg>