<?xml version="1.0" encoding="UTF-8"?>
<svg width="12px" height="12px" viewBox="0 0 12 12" version="1.1" xmlns="http://www.w3.org/2000/svg" xmlns:xlink="http://www.w3.org/1999/xlink">
    <!-- Generator: Sketch 52.2 (67145) - http://www.bohemiancoding.com/sketch -->
    <title>round-arrow_back-24px</title>
    <desc>Created with Sketch.</desc>
    <g id="Checklist-app" stroke="none" stroke-width="1" fill="none" fill-rule="evenodd">
        <g id="lista" transform="translate(-344.000000, -28.000000)">
            <g id="Group-3" transform="translate(260.000000, 24.000000)">
                <g id="round-arrow_back-24px" transform="translate(90.000000, 10.000000) rotate(180.000000) translate(-90.000000, -10.000000) translate(81.000000, 1.000000)">
                    <polygon id="Path" points="0 0 18 0 18 18 0 18"></polygon>
                    <path d="M14.25,8.25 L5.8725,8.25 L9.5325,4.59 C9.825,4.2975 9.825,3.8175 9.5325,3.525 C9.24,3.2325 8.7675,3.2325 8.475,3.525 L3.5325,8.4675 C3.24,8.76 3.24,9.2325 3.5325,9.525 L8.475,14.4675 C8.7675,14.76 9.24,14.76 9.5325,14.4675 C9.825,14.175 9.825,13.7025 9.5325,13.41 L5.8725,9.75 L14.25,9.75 C14.6625,9.75 15,9.4125 15,9 C15,8.5875 14.6625,8.25 14.25,8.25 Z" id="Path" fill="#0084FF"></path>
                </g>
            </g>
        </g>
    </g>
</svg>